{
	"patcher" : 	{
		"fileversion" : 1,
		"appversion" : 		{
			"major" : 7,
			"minor" : 3,
			"revision" : 3,
			"architecture" : "x64",
			"modernui" : 1
		}
,
		"rect" : [ 970.0, 216.0, 423.0, 687.0 ],
		"bglocked" : 0,
		"openinpresentation" : 1,
		"default_fontsize" : 12.0,
		"default_fontface" : 0,
		"default_fontname" : "Arial",
		"gridonopen" : 1,
		"gridsize" : [ 15.0, 15.0 ],
		"gridsnaponopen" : 1,
		"objectsnaponopen" : 1,
		"statusbarvisible" : 2,
		"toolbarvisible" : 1,
		"lefttoolbarpinned" : 0,
		"toptoolbarpinned" : 0,
		"righttoolbarpinned" : 0,
		"bottomtoolbarpinned" : 0,
		"toolbars_unpinned_last_save" : 0,
		"tallnewobj" : 0,
		"boxanimatetime" : 200,
		"enablehscroll" : 1,
		"enablevscroll" : 1,
		"devicewidth" : 0.0,
		"description" : "",
		"digest" : "",
		"tags" : "",
		"style" : "",
		"subpatcher_template" : "",
		"boxes" : [ 			{
				"box" : 				{
					"id" : "obj-13",
					"maxclass" : "newobj",
					"numinlets" : 8,
					"numoutlets" : 1,
					"outlettype" : [ "" ],
					"patching_rect" : [ 37.0, 323.0, 92.5, 22.0 ],
					"style" : "",
					"text" : "join 8"
				}

			}
, 			{
				"box" : 				{
					"comment" : "",
					"id" : "obj-11",
					"index" : 0,
					"maxclass" : "outlet",
					"numinlets" : 1,
					"numoutlets" : 0,
					"patching_rect" : [ 37.0, 384.0, 30.0, 30.0 ],
					"style" : ""
				}

			}
, 			{
				"box" : 				{
					"comment" : "",
					"id" : "obj-9",
					"index" : 0,
					"maxclass" : "inlet",
					"numinlets" : 0,
					"numoutlets" : 1,
					"outlettype" : [ "" ],
					"patching_rect" : [ 21.0, 0.0, 30.0, 30.0 ],
					"style" : ""
				}

			}
, 			{
				"box" : 				{
					"bgmode" : 0,
					"border" : 0,
					"clickthrough" : 0,
					"enablehscroll" : 0,
					"enablevscroll" : 0,
					"id" : "obj-8",
					"lockeddragscroll" : 0,
					"maxclass" : "bpatcher",
					"name" : "MappingAddress_02.maxpat",
					"numinlets" : 1,
					"numoutlets" : 1,
					"offset" : [ 0.0, 0.0 ],
					"outlettype" : [ "" ],
					"patching_rect" : [ 256.0, 297.0, 423.0, 26.0 ],
					"presentation" : 1,
					"presentation_rect" : [ 3.0, 119.0, 423.0, 17.0 ],
					"varname" : "MappingAddress[1]",
					"viewvisibility" : 1
				}

			}
, 			{
				"box" : 				{
					"bgmode" : 0,
					"border" : 0,
					"clickthrough" : 0,
					"enablehscroll" : 0,
					"enablevscroll" : 0,
					"id" : "obj-7",
					"lockeddragscroll" : 0,
					"maxclass" : "bpatcher",
					"name" : "MappingAddress_02.maxpat",
					"numinlets" : 1,
					"numoutlets" : 1,
					"offset" : [ 0.0, 0.0 ],
					"outlettype" : [ "" ],
					"patching_rect" : [ 256.0, 265.0, 423.0, 17.0 ],
					"presentation" : 1,
					"presentation_rect" : [ 3.0, 102.0, 419.0, 17.0 ],
					"varname" : "MappingAddress[2]",
					"viewvisibility" : 1
				}

			}
, 			{
				"box" : 				{
					"bgmode" : 0,
					"border" : 0,
					"clickthrough" : 0,
					"enablehscroll" : 0,
					"enablevscroll" : 0,
					"id" : "obj-6",
					"lockeddragscroll" : 0,
					"maxclass" : "bpatcher",
					"name" : "MappingAddress_02.maxpat",
					"numinlets" : 1,
					"numoutlets" : 1,
					"offset" : [ 0.0, 0.0 ],
					"outlettype" : [ "" ],
					"patching_rect" : [ 256.0, 236.0, 423.0, 15.0 ],
					"presentation" : 1,
					"presentation_rect" : [ 3.0, 85.0, 423.0, 17.0 ],
					"varname" : "MappingAddress[3]",
					"viewvisibility" : 1
				}

			}
, 			{
				"box" : 				{
					"bgmode" : 0,
					"border" : 0,
					"clickthrough" : 0,
					"enablehscroll" : 0,
					"enablevscroll" : 0,
					"id" : "obj-5",
					"lockeddragscroll" : 0,
					"maxclass" : "bpatcher",
					"name" : "MappingAddress_02.maxpat",
					"numinlets" : 1,
					"numoutlets" : 1,
					"offset" : [ 0.0, 0.0 ],
					"outlettype" : [ "" ],
					"patching_rect" : [ 252.0, 205.0, 423.0, 18.0 ],
					"presentation" : 1,
					"presentation_rect" : [ 3.0, 68.0, 419.0, 17.0 ],
					"varname" : "MappingAddress[4]",
					"viewvisibility" : 1
				}

			}
, 			{
				"box" : 				{
					"bgmode" : 0,
					"border" : 0,
					"clickthrough" : 0,
					"enablehscroll" : 0,
					"enablevscroll" : 0,
					"id" : "obj-4",
					"lockeddragscroll" : 0,
					"maxclass" : "bpatcher",
					"name" : "MappingAddress_02.maxpat",
					"numinlets" : 1,
					"numoutlets" : 1,
					"offset" : [ 0.0, 0.0 ],
					"outlettype" : [ "" ],
					"patching_rect" : [ 252.0, 173.0, 423.0, 17.0 ],
					"presentation" : 1,
					"presentation_rect" : [ 3.0, 51.0, 423.0, 17.0 ],
					"varname" : "MappingAddress[5]",
					"viewvisibility" : 1
				}

			}
, 			{
				"box" : 				{
					"bgmode" : 0,
					"border" : 0,
					"clickthrough" : 0,
					"enablehscroll" : 0,
					"enablevscroll" : 0,
					"id" : "obj-3",
					"lockeddragscroll" : 0,
					"maxclass" : "bpatcher",
					"name" : "MappingAddress_02.maxpat",
					"numinlets" : 1,
					"numoutlets" : 1,
					"offset" : [ 0.0, 0.0 ],
					"outlettype" : [ "" ],
					"patching_rect" : [ 252.0, 141.0, 423.0, 17.0 ],
					"presentation" : 1,
					"presentation_rect" : [ 3.0, 34.0, 423.0, 17.0 ],
					"varname" : "MappingAddress[6]",
					"viewvisibility" : 1
				}

			}
, 			{
				"box" : 				{
					"bgmode" : 0,
					"border" : 0,
					"clickthrough" : 0,
					"enablehscroll" : 0,
					"enablevscroll" : 0,
					"id" : "obj-2",
					"lockeddragscroll" : 0,
					"maxclass" : "bpatcher",
					"name" : "MappingAddress_02.maxpat",
					"numinlets" : 1,
					"numoutlets" : 1,
					"offset" : [ 0.0, 0.0 ],
					"outlettype" : [ "" ],
					"patching_rect" : [ 252.0, 112.0, 423.0, 17.0 ],
					"presentation" : 1,
					"presentation_rect" : [ 3.0, 17.0, 423.0, 17.0 ],
					"varname" : "MappingAddress[7]",
					"viewvisibility" : 1
				}

			}
, 			{
				"box" : 				{
					"bgmode" : 0,
					"border" : 0,
					"clickthrough" : 0,
					"enablehscroll" : 0,
					"enablevscroll" : 0,
					"id" : "obj-1",
					"lockeddragscroll" : 0,
					"maxclass" : "bpatcher",
					"name" : "MappingAddress_02.maxpat",
					"numinlets" : 1,
					"numoutlets" : 1,
					"offset" : [ 0.0, 0.0 ],
					"outlettype" : [ "" ],
					"patching_rect" : [ 252.0, 82.0, 423.0, 17.0 ],
					"presentation" : 1,
					"presentation_rect" : [ 3.0, 0.0, 423.0, 17.0 ],
					"varname" : "MappingAddress",
					"viewvisibility" : 1
				}

			}
 ],
		"lines" : [ 			{
				"patchline" : 				{
					"destination" : [ "obj-13", 0 ],
					"disabled" : 0,
					"hidden" : 0,
					"source" : [ "obj-1", 0 ]
				}

			}
, 			{
				"patchline" : 				{
					"destination" : [ "obj-11", 0 ],
					"disabled" : 0,
					"hidden" : 0,
					"source" : [ "obj-13", 0 ]
				}

			}
, 			{
				"patchline" : 				{
					"destination" : [ "obj-13", 1 ],
					"disabled" : 0,
					"hidden" : 0,
					"source" : [ "obj-2", 0 ]
				}

			}
, 			{
				"patchline" : 				{
					"destination" : [ "obj-13", 2 ],
					"disabled" : 0,
					"hidden" : 0,
					"source" : [ "obj-3", 0 ]
				}

			}
, 			{
				"patchline" : 				{
					"destination" : [ "obj-13", 3 ],
					"disabled" : 0,
					"hidden" : 0,
					"source" : [ "obj-4", 0 ]
				}

			}
, 			{
				"patchline" : 				{
					"destination" : [ "obj-13", 4 ],
					"disabled" : 0,
					"hidden" : 0,
					"source" : [ "obj-5", 0 ]
				}

			}
, 			{
				"patchline" : 				{
					"destination" : [ "obj-13", 5 ],
					"disabled" : 0,
					"hidden" : 0,
					"source" : [ "obj-6", 0 ]
				}

			}
, 			{
				"patchline" : 				{
					"destination" : [ "obj-13", 6 ],
					"disabled" : 0,
					"hidden" : 0,
					"source" : [ "obj-7", 0 ]
				}

			}
, 			{
				"patchline" : 				{
					"destination" : [ "obj-13", 7 ],
					"disabled" : 0,
					"hidden" : 0,
					"source" : [ "obj-8", 0 ]
				}

			}
, 			{
				"patchline" : 				{
					"destination" : [ "obj-1", 0 ],
					"disabled" : 0,
					"hidden" : 0,
					"order" : 7,
					"source" : [ "obj-9", 0 ]
				}

			}
, 			{
				"patchline" : 				{
					"destination" : [ "obj-2", 0 ],
					"disabled" : 0,
					"hidden" : 0,
					"order" : 6,
					"source" : [ "obj-9", 0 ]
				}

			}
, 			{
				"patchline" : 				{
					"destination" : [ "obj-3", 0 ],
					"disabled" : 0,
					"hidden" : 0,
					"order" : 5,
					"source" : [ "obj-9", 0 ]
				}

			}
, 			{
				"patchline" : 				{
					"destination" : [ "obj-4", 0 ],
					"disabled" : 0,
					"hidden" : 0,
					"order" : 4,
					"source" : [ "obj-9", 0 ]
				}

			}
, 			{
				"patchline" : 				{
					"destination" : [ "obj-5", 0 ],
					"disabled" : 0,
					"hidden" : 0,
					"order" : 3,
					"source" : [ "obj-9", 0 ]
				}

			}
, 			{
				"patchline" : 				{
					"destination" : [ "obj-6", 0 ],
					"disabled" : 0,
					"hidden" : 0,
					"order" : 2,
					"source" : [ "obj-9", 0 ]
				}

			}
, 			{
				"patchline" : 				{
					"destination" : [ "obj-7", 0 ],
					"disabled" : 0,
					"hidden" : 0,
					"order" : 1,
					"source" : [ "obj-9", 0 ]
				}

			}
, 			{
				"patchline" : 				{
					"destination" : [ "obj-8", 0 ],
					"disabled" : 0,
					"hidden" : 0,
					"order" : 0,
					"source" : [ "obj-9", 0 ]
				}

			}
 ],
		"parameters" : 		{
			"obj-1::obj-4" : [ "live.toggle[7]", "live.toggle", 0 ],
			"obj-3::obj-19::obj-26" : [ "Min[10]", "Min 1", 0 ],
			"obj-2::obj-3::obj-32::obj-15" : [ "Unmap[8]", "unmap", 0 ],
			"obj-6::obj-19::obj-20" : [ "Max[10]", "Max 1", 0 ],
			"obj-4::obj-19::obj-26" : [ "Min[2]", "Min 1", 0 ],
			"obj-7::obj-4" : [ "live.toggle[8]", "live.toggle", 0 ],
			"obj-4::obj-4" : [ "live.toggle[3]", "live.toggle", 0 ],
			"obj-5::obj-19::obj-146" : [ "Curve1[9]", "Map", 0 ],
			"obj-5::obj-19::obj-26" : [ "Min[3]", "Min 1", 0 ],
			"obj-1::obj-19::obj-146" : [ "Curve1[7]", "Map", 0 ],
			"obj-2::obj-19::obj-26" : [ "Min[1]", "Min 1", 0 ],
			"obj-6::obj-3::obj-32::obj-15" : [ "Unmap[2]", "unmap", 0 ],
			"obj-3::obj-3::obj-32::obj-19" : [ "Map[1]", "Map", 0 ],
			"obj-8::obj-19::obj-26" : [ "Min[5]", "Min 1", 0 ],
			"obj-7::obj-19::obj-146" : [ "Curve1[4]", "Map", 0 ],
			"obj-8::obj-3::obj-32::obj-19" : [ "Map[12]", "Map", 0 ],
			"obj-2::obj-19::obj-20" : [ "Max[6]", "Max 1", 0 ],
			"obj-5::obj-3::obj-32::obj-19" : [ "Map[10]", "Map", 0 ],
			"obj-1::obj-19::obj-26" : [ "Min[9]", "Min 1", 0 ],
			"obj-7::obj-19::obj-26" : [ "Min[4]", "Min 1", 0 ],
			"obj-6::obj-19::obj-146" : [ "Curve1[3]", "Map", 0 ],
			"obj-8::obj-19::obj-146" : [ "Curve1[10]", "Map", 0 ],
			"obj-6::obj-9::obj-9" : [ "address[5]", "address", 0 ],
			"obj-3::obj-19::obj-146" : [ "Curve1[2]", "Map", 0 ],
			"obj-4::obj-3::obj-32::obj-19" : [ "Map[9]", "Map", 0 ],
			"obj-4::obj-19::obj-20" : [ "Max[8]", "Max 1", 0 ],
			"obj-7::obj-9::obj-9" : [ "address[6]", "address", 0 ],
			"obj-2::obj-9::obj-9" : [ "address[1]", "address", 0 ],
			"obj-3::obj-9::obj-9" : [ "address[2]", "address", 0 ],
			"obj-2::obj-4" : [ "live.toggle[1]", "live.toggle", 0 ],
			"obj-7::obj-3::obj-32::obj-15" : [ "Unmap[3]", "unmap", 0 ],
			"obj-8::obj-9::obj-9" : [ "address[8]", "address", 0 ],
			"obj-8::obj-19::obj-20" : [ "Max[12]", "Max 1", 0 ],
			"obj-4::obj-9::obj-9" : [ "address[3]", "address", 0 ],
			"obj-3::obj-4" : [ "live.toggle[2]", "live.toggle", 0 ],
			"obj-1::obj-9::obj-9" : [ "address[7]", "address", 0 ],
			"obj-2::obj-19::obj-146" : [ "Curve1[1]", "Map", 0 ],
			"obj-8::obj-4" : [ "live.toggle[9]", "live.toggle", 0 ],
			"obj-5::obj-4" : [ "live.toggle[4]", "live.toggle", 0 ],
			"obj-2::obj-3::obj-32::obj-19" : [ "Map[8]", "Map", 0 ],
			"obj-4::obj-19::obj-146" : [ "Curve1[8]", "Map", 0 ],
			"obj-4::obj-3::obj-32::obj-15" : [ "Unmap[9]", "unmap", 0 ],
			"obj-3::obj-19::obj-20" : [ "Max[7]", "Max 1", 0 ],
			"obj-6::obj-3::obj-32::obj-19" : [ "Map[2]", "Map", 0 ],
			"obj-3::obj-3::obj-32::obj-15" : [ "Unmap[1]", "unmap", 0 ],
			"obj-7::obj-19::obj-20" : [ "Max[11]", "Max 1", 0 ],
			"obj-6::obj-19::obj-26" : [ "Min[11]", "Min 1", 0 ],
			"obj-8::obj-3::obj-32::obj-15" : [ "Unmap[11]", "unmap", 0 ],
			"obj-6::obj-4" : [ "live.toggle[5]", "live.toggle", 0 ],
			"obj-7::obj-3::obj-32::obj-19" : [ "Map[11]", "Map", 0 ],
			"obj-1::obj-3::obj-32::obj-15" : [ "Unmap[7]", "unmap", 0 ],
			"obj-5::obj-3::obj-32::obj-15" : [ "Unmap[10]", "unmap", 0 ],
			"obj-5::obj-9::obj-9" : [ "address[4]", "address", 0 ],
			"obj-5::obj-19::obj-20" : [ "Max[9]", "Max 1", 0 ],
			"obj-1::obj-3::obj-32::obj-19" : [ "Map[7]", "Map", 0 ],
			"obj-1::obj-19::obj-20" : [ "Max[5]", "Max 1", 0 ]
		}
,
		"dependency_cache" : [ 			{
				"name" : "MappingAddress_02.maxpat",
				"bootpath" : "Z:/Users/AudioVisual02/Desktop/MAX_tests/Tests_05_04/OSC Send Project _Testings/patchers",
				"type" : "JSON",
				"implicit" : 1
			}
, 			{
				"name" : "OSCAddressField.maxpat",
				"bootpath" : "Z:/Users/AudioVisual02/Desktop/MAX_tests/Tests_05_04/OSC Send Project _Testings/patchers",
				"type" : "JSON",
				"implicit" : 1
			}
, 			{
				"name" : "Values.maxpat",
				"bootpath" : "Z:/Users/AudioVisual02/Desktop/MAX_tests/Tests_05_04/OSC Send Project _Testings/patchers",
				"type" : "JSON",
				"implicit" : 1
			}
, 			{
				"name" : "M4L.IO.Observe2.maxpat",
				"bootpath" : "Z:/Users/AudioVisual02/Desktop/MAX_tests/Tests_05_04/OSC Send Project _Testings/patchers",
				"type" : "JSON",
				"implicit" : 1
			}
, 			{
				"name" : "M4L.IO.MapFunction.maxpat",
				"bootpath" : "Z:/Users/AudioVisual02/Desktop/MAX_tests/Tests_05_04/OSC Send Project _Testings/patchers",
				"type" : "JSON",
				"implicit" : 1
			}
, 			{
				"name" : "M4L.IO.MapButton.maxpat",
				"bootpath" : "Z:/Users/AudioVisual02/Desktop/MAX_tests/Tests_05_04/OSC Send Project _Testings/patchers",
				"type" : "JSON",
				"implicit" : 1
			}
 ],
		"autosave" : 0
	}

}
